<?xml version="1.0" encoding="utf-8"?>
<!-- Generator: Adobe Illustrator 18.0.0, SVG Export Plug-In . SVG Version: 6.00 Build 0)  -->
<!DOCTYPE svg PUBLIC "-//W3C//DTD SVG 1.1//EN" "http://www.w3.org/Graphics/SVG/1.1/DTD/svg11.dtd">
<svg version="1.1" id="Layer_1" xmlns="http://www.w3.org/2000/svg" xmlns:xlink="http://www.w3.org/1999/xlink" x="0px" y="0px"
	 viewBox="5.5 12.7 16.8 16.8" enable-background="new 5.5 12.7 16.8 16.8" xml:space="preserve">
<title>Artboard</title>
<desc>Created with Sketch.</desc>
<g>
	<path fill="#FFFFFF" d="M11.8,20.3c0,0.2,0,0.4,0,0.6c0,0,0,0.1,0,0.1c-0.2,0-0.4-0.1-0.5-0.1c-0.1,0-0.2,0-0.3,0c0,0,0,0-0.1,0
		c-0.1-0.1,0-0.2,0-0.4c0-0.1,0-0.1,0-0.2v0c0-0.1,0-0.1,0.1-0.1c0.2,0,0.5,0,0.7,0C11.8,20.2,11.8,20.2,11.8,20.3z"/>
	<path fill="#FFFFFF" d="M12.6,21.1c0-0.5,0-1,0-1.4c0-0.1,0-0.1,0.1-0.1c0.3,0,0.5,0,0.8,0c0.1,0,0.1,0,0.1,0.1c0,0.6,0,1.2,0,1.8
		c0,0,0,0.1,0,0.1c-0.2-0.1-0.5-0.1-0.7-0.2c-0.1,0-0.1,0-0.2,0C12.6,21.2,12.6,21.1,12.6,21.1z"/>
	<path fill="#FFFFFF" d="M14.3,21.6c0-1,0-1.9,0-2.9c0-0.1,0-0.1,0.1-0.1c0.3,0,0.5,0,0.8,0h0c0,0,0,0,0,0c0,0,0,0,0,0c0,0,0,0,0,0
		c0,0,0,0.1,0,0.1c0,1.1,0,2.2,0,3.3c0,0,0,0.1-0.1,0.1c-0.3-0.1-0.6-0.2-0.9-0.4C14.3,21.7,14.3,21.7,14.3,21.6z"/>
	<path fill="#FFFFFF" d="M16,22.4c0-1.5,0-3,0-4.4c0-0.1,0-0.1,0.1-0.1c0.3,0,0.5,0,0.8,0c0,0,0,0,0,0c0,0,0,0,0,0c0,0,0,0.1,0,0.1
		c0,1.7,0,3.4,0,5c0,0,0.1,0.1-0.1,0.1c-0.3-0.2-0.6-0.4-0.9-0.5C16,22.5,16,22.4,16,22.4z"/>
	<path fill="#FFFFFF" d="M17.1,27.9c0.1,0.2,0.2,0.3,0.3,0.5c-0.2,0-0.5,0-0.7,0c0,0,0,0-0.1,0c-0.2,0-0.3,0-0.5,0c0,0,0,0,0,0
		c-0.1,0-0.1,0-0.2,0c0-0.1-0.1-0.2-0.1-0.3c0-0.1-0.1-0.1-0.1-0.2c-0.1-0.1-0.2-0.2-0.2-0.3c-0.1-0.1-0.2-0.3-0.3-0.4
		c-0.2,0-0.4,0.1-0.7,0.1c-0.1,0-0.1,0-0.2,0c-0.2,0-0.5,0-0.7,0c0,0-0.1,0-0.1,0.1c-0.1,0.2-0.2,0.5-0.3,0.7
		c-0.1,0.3-0.1,0.3-0.5,0.3c-0.2,0-0.5-0.1-0.7-0.1c-0.1,0-0.1-0.1-0.1-0.1c0-0.2,0-0.3,0-0.5c0-0.2,0-0.3,0-0.5c0,0,0-0.1,0-0.1
		c0,0-0.1,0-0.1,0c-0.1-0.1-0.3-0.1-0.4-0.2c-0.1,0-0.3-0.1-0.4-0.2c-0.2-0.1-0.3-0.2-0.5-0.3c-0.1,0-0.1,0-0.2,0
		c-0.2,0.2-0.5,0.4-0.7,0.5c0,0-0.1,0-0.1,0.1c-0.2-0.1-0.3-0.2-0.5-0.4c-0.2-0.1-0.2-0.2-0.3-0.3c0,0,0-0.1,0-0.1
		C8.9,26,8.9,25.8,9,25.7c0.1-0.1,0.1-0.3,0.2-0.4c0.1-0.1,0.1-0.2,0-0.2C9.1,25,9,24.8,8.9,24.7c-0.1-0.2-0.2-0.3-0.3-0.5
		c0,0-0.1-0.1-0.1-0.1c-0.1-0.2-0.1-0.2-0.4-0.2h0l0,0c-0.1,0-0.2,0-0.3,0c-0.1,0-0.1,0-0.2,0c0,0,0,0,0,0c0,0,0,0,0,0
		c-0.1,0-0.1,0-0.2,0c-0.1,0-0.2,0-0.2,0c0-0.1,0-0.1,0.1-0.1c0.4-0.4,0.8-0.9,1.3-1.3c0,0,0.1-0.1,0.1-0.1c0.1,0,0.1,0,0.2,0
		c0,0,0.1,0,0.1,0c0.1,0,0.1,0,0.2,0c0,0,0.1,0,0.1,0c0.2,0,0.5,0.1,0.7,0.2c0.2,0,0.4,0.1,0.6,0.2c0,0,0,0,0,0
		c0.2,0,0.4,0.1,0.5,0.2c0.1,0,0.3,0.1,0.4,0.1c0.2,0.1,0.4,0.1,0.6,0.2c0,0,0,0,0,0c0,0,0,0,0,0c0.2,0.1,0.4,0.1,0.5,0.2
		c0.1,0,0.2,0.1,0.3,0.1c0.2,0.1,0.4,0.2,0.5,0.3c0.1,0.1,0.2,0.1,0.4,0.2c0.1,0.1,0.2,0.1,0.3,0.2c0.1,0.1,0.2,0.1,0.3,0.2
		c0.1,0.1,0.2,0.1,0.2,0.2c0.1,0.1,0.2,0.2,0.3,0.3c0.1,0,0.1,0.1,0.2,0.2c0.1,0,0.1,0.1,0.2,0.1c0.3,0.3,0.5,0.5,0.8,0.8
		c0.1,0.1,0.2,0.3,0.3,0.4c0.1,0.1,0.2,0.2,0.2,0.3c0,0.1,0.1,0.1,0.1,0.2c0.1,0.1,0.2,0.2,0.2,0.4C17,27.6,17.1,27.7,17.1,27.9z"/>
	<path fill="#FFFFFF" d="M21.2,21.9c0,0.1,0,0.2-0.1,0.3c0,0.2-0.1,0.4-0.1,0.5c0,0.1-0.1,0.2-0.2,0.2c-0.1,0-0.2,0-0.2,0
		c-0.2,0-0.4,0-0.6,0c0,0,0,0,0,0c-0.1,0-0.1,0-0.1,0.1c0,0.1,0,0.1-0.1,0.2c-0.2,0.4-0.3,0.8-0.6,1.2c0,0,0,0.1,0,0.1
		c0.1,0.2,0.3,0.3,0.4,0.5c0.1,0.1,0.1,0.2,0.2,0.3c0.1,0.1,0.1,0.2,0,0.2c-0.2,0.2-0.3,0.4-0.5,0.6c0,0-0.1,0.1-0.1,0.2
		c0.1,0.2,0.3,0.4,0.4,0.6c0.1,0.2,0.3,0.4,0.4,0.7c0.1,0.2,0.2,0.3,0.2,0.5c0.1,0.1,0.1,0.3,0.2,0.4c0,0,0,0,0,0
		c-0.2,0-0.5,0-0.7,0h0c0,0,0,0-0.1,0c-0.2,0-0.5,0-0.7,0c0,0,0-0.1,0-0.1c-0.1-0.1-0.1-0.2-0.1-0.3c-0.1-0.1-0.1-0.3-0.2-0.4
		c-0.1-0.2-0.2-0.4-0.3-0.6c-0.2-0.2-0.3-0.5-0.5-0.7c-0.1-0.2-0.3-0.4-0.4-0.5c-0.2-0.2-0.3-0.4-0.5-0.6c-0.2-0.1-0.3-0.3-0.5-0.5
		c0,0-0.1-0.1-0.1-0.1c-0.2-0.2-0.4-0.4-0.6-0.5c-0.1-0.1-0.1-0.1-0.2-0.2c-0.3-0.2-0.5-0.4-0.8-0.6c-0.5-0.3-1-0.6-1.6-0.8
		c0,0-0.1,0-0.1,0c-0.2-0.1-0.3-0.1-0.5-0.2c-0.2-0.1-0.4-0.1-0.5-0.2c-0.3-0.1-0.5-0.2-0.8-0.3c-0.3-0.1-0.5-0.1-0.8-0.2
		c-0.3-0.1-0.6-0.1-1-0.2c0,0,0,0-0.1,0c-0.1,0-0.1,0-0.2,0c0.1,0,0.1,0,0.2,0c0.1,0,0.2,0,0.3,0h0c0.1,0,0.1,0,0.2,0
		c0.1,0,0.1,0,0.2,0c0,0,0.1,0,0.1,0c0.4,0,0.7,0.1,1.1,0.1c0,0,0.1,0,0.1,0c0.3,0,0.6,0.1,0.9,0.2c0,0,0.1,0,0.1,0
		c0.2,0,0.4,0.1,0.6,0.2c0.2,0,0.3,0.1,0.5,0.1c0.3,0.1,0.7,0.2,1,0.3c0.3,0.1,0.6,0.2,0.9,0.4c0.3,0.1,0.6,0.3,0.9,0.5
		c0.3,0.2,0.6,0.4,0.9,0.6c0.2,0.2,0.5,0.3,0.7,0.5c0,0,0.1,0.1,0.1,0c0.1-0.1,0.1-0.2,0.2-0.3c0.3-0.4,0.5-0.8,0.7-1.2
		c0-0.1,0.1-0.2,0.1-0.3c0.1-0.2,0.1-0.5,0.2-0.7c0-0.1,0-0.3,0.1-0.4c0-0.1,0-0.1,0-0.2c0,0,0-0.1,0-0.1c0-0.4,0-0.8-0.1-1.2
		c-0.1-0.4-0.2-0.9-0.4-1.3c0-0.1-0.1-0.2-0.1-0.3c-0.1-0.2-0.2-0.3-0.3-0.5c-0.1-0.2-0.2-0.3-0.4-0.5c-0.1-0.1-0.2-0.3-0.4-0.4
		c-0.2-0.2-0.4-0.3-0.6-0.5c-0.2-0.1-0.3-0.2-0.5-0.3c-0.2-0.1-0.4-0.2-0.7-0.3c-0.2-0.1-0.5-0.1-0.7-0.2c-0.2,0-0.3,0-0.5,0
		c-0.1,0-0.1,0-0.2,0c0,0-0.1,0-0.1,0c-0.2,0-0.5,0-0.7,0c0,0-0.1,0-0.1,0c-0.1,0-0.3,0.1-0.4,0.1c-0.3,0.1-0.6,0.2-0.9,0.3
		c-0.1,0.1-0.1,0.1-0.2,0.1c-0.2,0.1-0.5,0.2-0.7,0.4c-0.3,0.2-0.6,0.4-0.9,0.7c-0.3,0.3-0.5,0.6-0.7,0.9c-0.2,0.3-0.3,0.7-0.5,1
		C9,19.5,8.9,19.8,8.8,20c0,0.2-0.1,0.4-0.1,0.6c0,0,0,0.1,0,0.1c0,0.2,0,0.3,0,0.5c0,0,0,0.1-0.1,0.1c-0.2,0-0.4-0.1-0.7-0.1
		c-0.4,0-0.3,0-0.3-0.4c0,0,0-0.1,0-0.1c0-0.1-0.1-0.2-0.2-0.2c-0.1,0-0.2,0-0.2-0.1c-0.2-0.1-0.4-0.1-0.5-0.2
		c-0.1,0-0.1-0.1-0.1-0.1c0-0.2,0-0.3,0.1-0.5c0.3-0.2,0.5-0.3,0.8-0.5c0,0,0.1,0,0.1,0c0.1,0,0.3,0,0.4,0c0-0.2,0.1-0.3,0.2-0.4
		c0.1-0.3,0.2-0.5,0.4-0.8c0.1-0.1,0.1-0.2,0.2-0.2c0,0,0-0.1,0-0.1c0,0,0,0,0-0.1l0,0c0,0,0,0-0.1-0.1c0,0-0.1-0.1-0.1-0.1
		c0,0-0.1-0.1-0.1-0.1c-0.1,0-0.1-0.1-0.1-0.1c0,0-0.1,0-0.1-0.1c0,0-0.1-0.1-0.1-0.2c0,0,0,0,0,0c-0.1-0.1,0-0.1,0-0.2
		c0.1-0.2,0.3-0.3,0.4-0.5c0.1-0.1,0.1-0.2,0.2-0.2c0,0,0.1,0,0.1,0C8.9,16,9,16,9.1,16.1c0,0,0.1,0,0.1,0.1c0.1,0,0.1,0.1,0.2,0.1
		c0,0,0.1,0,0.1,0.1c0.1,0,0.1,0,0.2,0.1c0.1,0,0.1,0.1,0.2,0.1c0,0,0-0.1,0.1-0.1c0.2-0.2,0.4-0.4,0.6-0.5c0.2-0.1,0.4-0.3,0.6-0.4
		c0,0,0,0,0,0c0,0,0,0,0-0.1c0,0,0,0,0,0c0,0,0,0,0,0c0-0.1,0-0.1,0-0.2c0-0.1-0.1-0.1,0-0.2c0-0.1-0.1-0.1,0-0.2c0,0,0,0,0,0
		c0,0,0-0.1,0-0.1c0-0.1,0-0.1,0-0.2l0,0c0-0.1,0-0.1,0-0.2c0,0,0-0.1,0.1-0.1c0.2-0.1,0.4-0.2,0.6-0.2c0.1,0,0.2-0.1,0.3-0.1
		c0,0,0.1,0,0.1,0c0,0,0,0.1,0.1,0.1c0.1,0,0.1,0.1,0.1,0.1c0,0,0.1,0.1,0.1,0.1c0,0,0.1,0.1,0.1,0.1c0,0.1,0.1,0.1,0.1,0.2
		c0,0,0.1,0.1,0.1,0.1c0,0,0,0,0,0c0,0,0,0,0,0.1c0,0,0,0,0,0c0,0,0.1,0.1,0.1,0.1c0.1,0,0.2-0.1,0.3-0.1c0.2-0.1,0.4-0.1,0.5-0.1
		c0.1,0,0.2,0,0.3,0h0.1c0.1,0,0.2,0,0.3,0c0.1,0,0.1,0,0.2-0.1c0.1-0.3,0.2-0.5,0.3-0.8c0-0.1,0.1-0.2,0.3-0.1
		c0.3,0.1,0.5,0.1,0.8,0.1c0,0,0.1,0,0.1,0.1c0,0,0,0.1,0,0.1c0,0.1,0,0.1,0,0.2v0c0,0.2,0,0.4,0,0.6c0,0.1,0,0.2,0,0.2
		c0.1,0,0.1,0,0.2,0.1c0.2,0.1,0.4,0.1,0.6,0.2c0.2,0.1,0.4,0.2,0.6,0.3c0,0,0,0,0,0c0,0,0,0,0,0c0.1,0,0.1,0.1,0.2,0
		c0.2-0.2,0.4-0.4,0.7-0.5c0.1-0.1,0.2-0.1,0.2,0c0.1,0.1,0.2,0.2,0.3,0.2c0.1,0.1,0.2,0.2,0.4,0.3c0.1,0.1,0.1,0.2,0,0.3
		c-0.1,0.2-0.2,0.5-0.4,0.7c0,0.1,0,0.1,0,0.2c0.2,0.1,0.3,0.3,0.4,0.5c0.1,0.2,0.2,0.3,0.3,0.5c0,0.1,0.1,0.1,0.1,0.2
		c0.1,0.1,0.2,0.2,0.3,0.1c0.3,0,0.5-0.1,0.8-0.1c0.1,0,0.2,0,0.2,0.1c0.1,0.2,0.1,0.4,0.2,0.6c0.1,0.3,0.1,0.3-0.3,0.6
		c-0.2,0.1-0.3,0.2-0.5,0.3c-0.1,0-0.1,0.1-0.1,0.1c0.1,0.3,0.1,0.5,0.1,0.8c0,0,0,0,0,0c0,0.2,0,0.5,0,0.7c0.1,0.1,0.3,0.1,0.4,0.2
		c0.2,0.1,0.4,0.1,0.6,0.2C21.2,21.8,21.2,21.8,21.2,21.9z"/>
</g>
</svg>
